<svg id="Laag_1" data-name="Laag 1" xmlns="http://www.w3.org/2000/svg" viewBox="0 0 1000 1000"><title>adelange</title><rect width="1000" height="1000" fill="#00b4cd"/><polygon points="181.44 547 198.73 547 243.32 469.5 234.8 455.02 181.44 547" fill="#fff"/><polygon points="205.64 547 222.93 547 255.42 490.25 246.9 475.77 205.64 547" fill="#fff"/><polygon points="300.03 547.4 308.63 532.53 238.25 532.72 230.04 547.31 300.03 547.4" fill="#fff"/><polygon points="331.15 526.5 339.75 511.4 250.16 511.86 241.95 526.45 331.15 526.5" fill="#fff"/><polygon points="276.31 443 259.09 443 295.71 505.87 312.44 505.42 276.31 443" fill="#fff"/><polygon points="247.8 435 230.38 435 271.69 505.77 288.42 505.16 247.8 435" fill="#fff"/><path d="M385.69,496.07h-11l-1.83,5.37h-7.5l10.79-29.25h8.21l10.79,29.25h-7.58Zm-1.83-5.42-3.67-10.83-3.71,10.83h7.37Z" transform="translate(0)" fill="#fff"/><path d="M404,494.32v7.12h-7.37v-7.12H404Z" transform="translate(0)" fill="#fff"/><path d="M429.44,479.11a7,7,0,0,1,2.79,3.29V470.61h7.12v30.83h-7.12v-4.21a7,7,0,0,1-2.79,3.29,8.41,8.41,0,0,1-4.58,1.21,9.42,9.42,0,0,1-5.15-1.44,9.82,9.82,0,0,1-3.58-4.15,16,16,0,0,1,0-12.69,9.85,9.85,0,0,1,3.58-4.12,9.41,9.41,0,0,1,5.15-1.44A8.42,8.42,0,0,1,429.44,479.11Zm-6,6.54a6.91,6.91,0,0,0,0,8.33,5.23,5.23,0,0,0,7.37,0,6.67,6.67,0,0,0,0-8.27,4.85,4.85,0,0,0-3.69-1.52A4.8,4.8,0,0,0,423.46,485.65Z" transform="translate(0)" fill="#fff"/><path d="M466.14,491.11H450a5.39,5.39,0,0,0,1.33,3.77,4.3,4.3,0,0,0,3.08,1.15,4.21,4.21,0,0,0,2.62-.79,3.7,3.7,0,0,0,1.38-2H466a9.86,9.86,0,0,1-2,4.4,10.65,10.65,0,0,1-3.92,3,13.37,13.37,0,0,1-11.35-.33,10.27,10.27,0,0,1-4.15-4.15,14.25,14.25,0,0,1,0-12.69,10.13,10.13,0,0,1,4.15-4.12,13.68,13.68,0,0,1,12.17,0,10,10,0,0,1,4.06,4,11.84,11.84,0,0,1,1.44,5.9A9.84,9.84,0,0,1,466.14,491.11Zm-8.23-6.44a4.53,4.53,0,0,0-3.15-1.15,4.67,4.67,0,0,0-3.25,1.17,4.88,4.88,0,0,0-1.46,3.42h9.08A4.29,4.29,0,0,0,457.91,484.67Z" transform="translate(0)" fill="#fff"/><path d="M485.51,496H495v5.46H478.39V472h7.12v24Z" transform="translate(0)" fill="#fff"/><path d="M511.72,479.11a7.27,7.27,0,0,1,2.83,3.29v-4.21h7.08v23.25h-7.08v-4.21a7.27,7.27,0,0,1-2.83,3.29,8.41,8.41,0,0,1-4.58,1.21A9.42,9.42,0,0,1,502,500.3a9.83,9.83,0,0,1-3.58-4.15,16,16,0,0,1,0-12.69,9.85,9.85,0,0,1,3.58-4.12,9.41,9.41,0,0,1,5.15-1.44A8.42,8.42,0,0,1,511.72,479.11Zm-6,6.54a6.91,6.91,0,0,0,0,8.33,5.23,5.23,0,0,0,7.38,0,6.67,6.67,0,0,0,0-8.27,4.85,4.85,0,0,0-3.69-1.52A4.8,4.8,0,0,0,505.74,485.65Z" transform="translate(0)" fill="#fff"/><path d="M547.65,480.61a10.7,10.7,0,0,1,2.35,7.33v13.5h-7.12V488.78a5.13,5.13,0,0,0-1.23-3.65,4.27,4.27,0,0,0-3.27-1.31,4.45,4.45,0,0,0-3.44,1.38,5.56,5.56,0,0,0-1.27,3.92v12.33h-7.12V478.19h7.12v4.25a7.68,7.68,0,0,1,3-3.29,8.74,8.74,0,0,1,4.65-1.21A8,8,0,0,1,547.65,480.61Z" transform="translate(0)" fill="#fff"/><path d="M568.13,479.11A7.28,7.28,0,0,1,571,482.4v-4.21H578v23.12a13.35,13.35,0,0,1-1.25,5.85,9.58,9.58,0,0,1-3.83,4.15,12.33,12.33,0,0,1-6.42,1.54,13.19,13.19,0,0,1-8.39-2.48,10.08,10.08,0,0,1-3.77-6.73h7a3.52,3.52,0,0,0,1.52,2.21,5.51,5.51,0,0,0,3.1.79,5,5,0,0,0,3.56-1.27,5.35,5.35,0,0,0,1.35-4.06v-4.08a7.27,7.27,0,0,1-2.83,3.29,8.42,8.42,0,0,1-4.58,1.21,9.42,9.42,0,0,1-5.15-1.44,9.83,9.83,0,0,1-3.58-4.15,16,16,0,0,1,0-12.69,9.85,9.85,0,0,1,3.58-4.12,9.41,9.41,0,0,1,5.15-1.44A8.42,8.42,0,0,1,568.13,479.11Zm-6,6.54a6.92,6.92,0,0,0,0,8.33,5.23,5.23,0,0,0,7.38,0,6.67,6.67,0,0,0,0-8.27,4.85,4.85,0,0,0-3.69-1.52A4.8,4.8,0,0,0,562.15,485.65Z" transform="translate(0)" fill="#fff"/><path d="M604.84,491.11H588.71a5.39,5.39,0,0,0,1.33,3.77,4.3,4.3,0,0,0,3.08,1.15,4.21,4.21,0,0,0,2.63-.79,3.7,3.7,0,0,0,1.37-2h7.54a9.85,9.85,0,0,1-2,4.4,10.65,10.65,0,0,1-3.92,3,13.37,13.37,0,0,1-11.35-.33,10.27,10.27,0,0,1-4.15-4.15,14.25,14.25,0,0,1,0-12.69,10.14,10.14,0,0,1,4.15-4.12,13.68,13.68,0,0,1,12.17,0,10,10,0,0,1,4.06,4,11.85,11.85,0,0,1,1.44,5.9A9.84,9.84,0,0,1,604.84,491.11Zm-8.23-6.44a4.53,4.53,0,0,0-3.15-1.15,4.67,4.67,0,0,0-3.25,1.17,4.89,4.89,0,0,0-1.46,3.42h9.08A4.29,4.29,0,0,0,596.61,484.67Z" transform="translate(0)" fill="#fff"/><path d="M639,488.86a7.07,7.07,0,0,1,1.56,4.54,7.32,7.32,0,0,1-2.52,5.92q-2.52,2.12-7.23,2.13H617.08V472h13.37q4.5,0,7,2a6.73,6.73,0,0,1,2.46,5.58,6.88,6.88,0,0,1-1.42,4.44,6.52,6.52,0,0,1-3.71,2.31A7.38,7.38,0,0,1,639,488.86ZM624.21,484h4.67q3.71,0,3.71-3.17t-3.79-3.17h-4.58V484Zm9,8.37a3.1,3.1,0,0,0-1-2.48,4.41,4.41,0,0,0-3-.9h-5v6.62h5.08Q633.25,495.65,633.25,492.4Z" transform="translate(0)" fill="#fff"/><path d="M661.35,479.34a10.55,10.55,0,0,1,4.29,4.15,13.61,13.61,0,0,1,0,12.67,10.55,10.55,0,0,1-4.29,4.15,14.08,14.08,0,0,1-12.4,0,10.5,10.5,0,0,1-4.31-4.15,13.61,13.61,0,0,1,0-12.67,10.5,10.5,0,0,1,4.31-4.15A14.08,14.08,0,0,1,661.35,479.34Zm-9.62,6.21a6,6,0,0,0-1.4,4.27,5.91,5.91,0,0,0,1.4,4.25,4.57,4.57,0,0,0,3.44,1.46,4.5,4.5,0,0,0,3.42-1.46,6,6,0,0,0,1.38-4.25,6,6,0,0,0-1.37-4.27,4.48,4.48,0,0,0-3.42-1.48A4.54,4.54,0,0,0,651.73,485.55Z" transform="translate(0)" fill="#fff"/><path d="M694,478.19v23.25h-7.17v-4.21a7.73,7.73,0,0,1-3,3.25,8.66,8.66,0,0,1-4.6,1.21,8,8,0,0,1-6.35-2.67,10.69,10.69,0,0,1-2.35-7.33v-13.5h7.08v12.62a5.19,5.19,0,0,0,1.23,3.69,4.32,4.32,0,0,0,3.31,1.31,4.39,4.39,0,0,0,3.42-1.37,5.62,5.62,0,0,0,1.25-3.92V478.19H694Z" transform="translate(0)" fill="#fff"/><path d="M732.95,478.19l-6,23.25h-8l-4.21-15.58-4.25,15.58h-8l-6-23.25h7.12l3.08,16.75,4.33-16.75h7.58L723.24,495l3.08-16.79h6.62Z" transform="translate(0)" fill="#fff"/><path d="M765.76,488.86a7.07,7.07,0,0,1,1.56,4.54,7.32,7.32,0,0,1-2.52,5.92q-2.52,2.12-7.23,2.13H743.86V472h13.37q4.5,0,7,2a6.73,6.73,0,0,1,2.46,5.58,6.88,6.88,0,0,1-1.42,4.44,6.52,6.52,0,0,1-3.71,2.31A7.38,7.38,0,0,1,765.76,488.86ZM751,484h4.67q3.71,0,3.71-3.17t-3.79-3.17H751V484Zm9,8.37a3.1,3.1,0,0,0-1-2.48,4.41,4.41,0,0,0-3-.9h-5v6.62h5.08Q760,495.65,760,492.4Z" transform="translate(0)" fill="#fff"/><path d="M777.19,494.32v7.12h-7.37v-7.12h7.38Z" transform="translate(0)" fill="#fff"/><path d="M786.4,472l7.21,22.16L800.82,472h7.62l-10.25,29.46H789L778.78,472h7.63Z" transform="translate(0)" fill="#fff"/><path d="M817.32,494.32v7.12h-7.37v-7.12h7.38Z" transform="translate(0)" fill="#fff"/><path d="M384.07,547.5h-4.75l-7.94-12.05V547.5h-4.75V527.86h4.75L379.32,540V527.86h4.75V547.5Z" transform="translate(0)" fill="#fff"/><path d="M387.68,525.84a3.33,3.33,0,0,1,4.11,0,2.32,2.32,0,0,1,.78,1.79,2.29,2.29,0,0,1-.78,1.76,3.34,3.34,0,0,1-4.11,0,2.29,2.29,0,0,1-.78-1.76A2.32,2.32,0,0,1,387.68,525.84Zm4.42,6.15v15.5h-4.75V532h4.75Z" transform="translate(0)" fill="#fff"/><path d="M410,540.61H399.2a3.59,3.59,0,0,0,.89,2.51,2.87,2.87,0,0,0,2.06.76,2.8,2.8,0,0,0,1.75-.53,2.47,2.47,0,0,0,.92-1.36h5a6.57,6.57,0,0,1-1.33,2.93,7.09,7.09,0,0,1-2.61,2,8.92,8.92,0,0,1-7.57-.22,6.85,6.85,0,0,1-2.76-2.76,9.5,9.5,0,0,1,0-8.46,6.75,6.75,0,0,1,2.76-2.75,9.12,9.12,0,0,1,8.11,0,6.67,6.67,0,0,1,2.71,2.65,7.9,7.9,0,0,1,1,3.93A6.57,6.57,0,0,1,410,540.61Zm-5.49-4.29a3,3,0,0,0-2.1-.76,3.11,3.11,0,0,0-2.17.78,3.26,3.26,0,0,0-1,2.28h6.06A2.86,2.86,0,0,0,404.47,536.32Z" transform="translate(0)" fill="#fff"/><path d="M428,532v15.5H423.2v-2.81a5.15,5.15,0,0,1-2,2.17,5.77,5.77,0,0,1-3.07.81,5.36,5.36,0,0,1-4.24-1.78,7.13,7.13,0,0,1-1.57-4.89v-9h4.72v8.42a3.46,3.46,0,0,0,.82,2.46,2.88,2.88,0,0,0,2.21.88,2.93,2.93,0,0,0,2.28-.92,3.75,3.75,0,0,0,.83-2.61V532H428Z" transform="translate(0)" fill="#fff"/><path d="M453.92,532l-4,15.5h-5.31l-2.81-10.39L439,547.5H433.7l-4-15.5h4.75l2.06,11.17L439.42,532h5.06l3,11.19L449.5,532h4.42Z" transform="translate(0)" fill="#fff"/><path d="M468.74,532.76a6.57,6.57,0,0,1,2.39,2.75,10.66,10.66,0,0,1,0,8.46,6.56,6.56,0,0,1-2.39,2.76,6.28,6.28,0,0,1-3.43,1,5.61,5.61,0,0,1-3.06-.81,4.67,4.67,0,0,1-1.86-2.19v2.81h-4.75V526.94h4.75v7.86a4.68,4.68,0,0,1,1.86-2.19,5.61,5.61,0,0,1,3.06-.81A6.27,6.27,0,0,1,468.74,532.76ZM461.32,537a4.44,4.44,0,0,0,0,5.51,3.49,3.49,0,0,0,4.92,0,4.61,4.61,0,0,0,0-5.55,3.2,3.2,0,0,0-2.46-1A3.23,3.23,0,0,0,461.32,537Z" transform="translate(0)" fill="#fff"/><path d="M485.85,532.76a7,7,0,0,1,2.86,2.76,9.08,9.08,0,0,1,0,8.44,7,7,0,0,1-2.86,2.76,9.39,9.39,0,0,1-8.26,0,7,7,0,0,1-2.87-2.76,9.08,9.08,0,0,1,0-8.44,7,7,0,0,1,2.87-2.76A9.38,9.38,0,0,1,485.85,532.76Zm-6.42,4.14a4,4,0,0,0-.93,2.85,3.94,3.94,0,0,0,.93,2.83,3,3,0,0,0,2.29,1,3,3,0,0,0,2.28-1,4,4,0,0,0,.92-2.83,4,4,0,0,0-.92-2.85,3,3,0,0,0-2.28-1A3,3,0,0,0,479.43,536.9Z" transform="translate(0)" fill="#fff"/><path d="M507.64,532v15.5h-4.78v-2.81a5.15,5.15,0,0,1-2,2.17,5.77,5.77,0,0,1-3.07.81,5.36,5.36,0,0,1-4.24-1.78A7.13,7.13,0,0,1,492,541v-9h4.72v8.42a3.46,3.46,0,0,0,.82,2.46,2.88,2.88,0,0,0,2.21.88,2.93,2.93,0,0,0,2.28-.92,3.75,3.75,0,0,0,.83-2.61V532h4.78Z" transform="translate(0)" fill="#fff"/><path d="M533.58,532l-4,15.5h-5.3l-2.81-10.39-2.83,10.39h-5.3l-4-15.5h4.75l2.06,11.17L519.08,532h5.05l3,11.19L529.16,532h4.42Z" transform="translate(0)" fill="#fff"/><path d="M553.63,547.5l-2.28-2.75q-0.28.45-.47,0.69a4.34,4.34,0,0,1-1.79,1.64,5.86,5.86,0,0,1-2.74.61,6.83,6.83,0,0,1-3.4-.81,5.49,5.49,0,0,1-2.18-2.18,6.36,6.36,0,0,1-.75-3.1,6,6,0,0,1,1.28-4,4.9,4.9,0,0,1,3.28-1.79l-0.33-.56a5.93,5.93,0,0,1-.67-1.39,5,5,0,0,1-.22-1.53,4.37,4.37,0,0,1,.67-2.33,4.75,4.75,0,0,1,2-1.74,6.8,6.8,0,0,1,3.1-.65,6.3,6.3,0,0,1,3.92,1.07,5.29,5.29,0,0,1,1.89,2.79,7.43,7.43,0,0,1,.31,2.69h-4.42q0-.47-0.06-1a1.43,1.43,0,0,0-1.56-1.58,1.36,1.36,0,0,0-1,.36,1.22,1.22,0,0,0-.37.92,1.79,1.79,0,0,0,.21.86,8.91,8.91,0,0,0,.68,1l9.72,12.72h-4.78ZM548,543.13a2.23,2.23,0,0,0-.07-3.17,2.38,2.38,0,0,0-1.67-.64,2.21,2.21,0,0,0-1.57.56,2.05,2.05,0,0,0-.6,1.58,2.18,2.18,0,0,0,.65,1.65,2.29,2.29,0,0,0,1.65.63A2.19,2.19,0,0,0,548,543.13Z" transform="translate(0)" fill="#fff"/><path d="M575.74,547.5l-4.25-7.42h-1.08v7.42h-4.75V527.86h8.11a8.77,8.77,0,0,1,3.94.8,5.57,5.57,0,0,1,2.42,2.21,6.32,6.32,0,0,1,.81,3.21,5.7,5.7,0,0,1-1.18,3.64,6,6,0,0,1-3.43,2.06L581,547.5h-5.25Zm-5.33-10.67h2.94a3,3,0,0,0,2.08-.62,2.41,2.41,0,0,0,.67-1.85,2.45,2.45,0,0,0-.68-1.83,2.85,2.85,0,0,0-2.07-.67h-2.94v5Z" transform="translate(0)" fill="#fff"/><path d="M597.91,540.61H587.16a3.59,3.59,0,0,0,.89,2.51,2.87,2.87,0,0,0,2.06.76,2.81,2.81,0,0,0,1.75-.53,2.47,2.47,0,0,0,.92-1.36h5a6.58,6.58,0,0,1-1.33,2.93,7.11,7.11,0,0,1-2.61,2,8.92,8.92,0,0,1-7.57-.22,6.85,6.85,0,0,1-2.76-2.76,9.5,9.5,0,0,1,0-8.46,6.75,6.75,0,0,1,2.76-2.75,9.12,9.12,0,0,1,8.11,0,6.67,6.67,0,0,1,2.71,2.65,7.89,7.89,0,0,1,1,3.93A6.53,6.53,0,0,1,597.91,540.61Zm-5.49-4.29a3,3,0,0,0-2.1-.76,3.11,3.11,0,0,0-2.17.78,3.26,3.26,0,0,0-1,2.28h6.06A2.86,2.86,0,0,0,592.42,536.32Z" transform="translate(0)" fill="#fff"/><path d="M614.58,533.61a7.13,7.13,0,0,1,1.57,4.89v9H611.4v-8.44a3.42,3.42,0,0,0-.82-2.43,2.85,2.85,0,0,0-2.18-.87,3,3,0,0,0-2.29.92,3.71,3.71,0,0,0-.85,2.61v8.22h-4.75V532h4.75v2.83a5.11,5.11,0,0,1,2-2.19,5.83,5.83,0,0,1,3.1-.81A5.37,5.37,0,0,1,614.58,533.61Z" transform="translate(0)" fill="#fff"/><path d="M630.67,532.76a7,7,0,0,1,2.86,2.76,9.08,9.08,0,0,1,0,8.44,7,7,0,0,1-2.86,2.76,9.39,9.39,0,0,1-8.26,0,7,7,0,0,1-2.87-2.76,9.07,9.07,0,0,1,0-8.44,7,7,0,0,1,2.88-2.76A9.38,9.38,0,0,1,630.67,532.76Zm-6.42,4.14a4,4,0,0,0-.93,2.85,3.94,3.94,0,0,0,.93,2.83,3,3,0,0,0,2.29,1,3,3,0,0,0,2.28-1,4,4,0,0,0,.92-2.83,4,4,0,0,0-.92-2.85,3,3,0,0,0-2.28-1A3,3,0,0,0,624.25,536.9Z" transform="translate(0)" fill="#fff"/><path d="M644.21,542.86L647.57,532h5.05l-5.5,15.5h-5.89l-5.5-15.5h5.06Z" transform="translate(0)" fill="#fff"/><path d="M663.54,532.61a4.84,4.84,0,0,1,1.89,2.19V532h4.72v15.5h-4.72v-2.81a4.83,4.83,0,0,1-1.89,2.19,5.61,5.61,0,0,1-3.05.81,6.28,6.28,0,0,1-3.43-1,6.55,6.55,0,0,1-2.39-2.76,10.66,10.66,0,0,1,0-8.46,6.56,6.56,0,0,1,2.39-2.75,6.27,6.27,0,0,1,3.43-1A5.61,5.61,0,0,1,663.54,532.61Zm-4,4.36a4.61,4.61,0,0,0,0,5.55,3.49,3.49,0,0,0,4.92,0,4.44,4.44,0,0,0,0-5.51,3.23,3.23,0,0,0-2.46-1A3.2,3.2,0,0,0,659.55,537Z" transform="translate(0)" fill="#fff"/><path d="M682.2,543.41v4.08h-2.14a6.16,6.16,0,0,1-4.24-1.35q-1.51-1.35-1.51-4.46V536h-2.08v-4h2.08v-3.8h4.75V532h3.11v4h-3.11v5.78a1.74,1.74,0,0,0,.38,1.28,1.79,1.79,0,0,0,1.26.36h1.5Z" transform="translate(0)" fill="#fff"/><path d="M685.2,525.84a3.33,3.33,0,0,1,4.11,0,2.32,2.32,0,0,1,.78,1.79,2.29,2.29,0,0,1-.78,1.76,3.34,3.34,0,0,1-4.11,0,2.29,2.29,0,0,1-.78-1.76A2.32,2.32,0,0,1,685.2,525.84Zm4.42,6.15v15.5h-4.75V532h4.75Z" transform="translate(0)" fill="#fff"/><path d="M707.48,540.61H696.73a3.59,3.59,0,0,0,.89,2.51,2.87,2.87,0,0,0,2.06.76,2.81,2.81,0,0,0,1.75-.53,2.47,2.47,0,0,0,.92-1.36h5a6.58,6.58,0,0,1-1.33,2.93,7.11,7.11,0,0,1-2.61,2,8.92,8.92,0,0,1-7.57-.22,6.85,6.85,0,0,1-2.76-2.76,9.5,9.5,0,0,1,0-8.46,6.75,6.75,0,0,1,2.76-2.75,9.12,9.12,0,0,1,8.11,0,6.67,6.67,0,0,1,2.71,2.65,7.89,7.89,0,0,1,1,3.93A6.53,6.53,0,0,1,707.48,540.61ZM702,536.32a3,3,0,0,0-2.1-.76,3.11,3.11,0,0,0-2.17.78,3.26,3.26,0,0,0-1,2.28h6.06A2.86,2.86,0,0,0,702,536.32Z" transform="translate(0)" fill="#fff"/></svg>