<svg xmlns="http://www.w3.org/2000/svg" xmlns:xlink="http://www.w3.org/1999/xlink" viewBox="0 0 715.9 408.63"><defs><linearGradient id="Naamloos_verloop_7" x1="187.96" y1="734.84" x2="731" y2="421.32" gradientUnits="userSpaceOnUse"><stop offset="0" stop-color="#36c16c"/><stop offset="1" stop-color="#cff900"/></linearGradient><linearGradient id="Naamloos_verloop_7-2" x1="679.25" y1="588.06" x2="805.14" y2="588.06" xlink:href="#Naamloos_verloop_7"/><linearGradient id="Naamloos_verloop_7-3" x1="678.25" y1="609.67" x2="844.21" y2="609.67" xlink:href="#Naamloos_verloop_7"/><linearGradient id="Naamloos_verloop_7-4" x1="676" y1="627.34" x2="812.18" y2="627.34" xlink:href="#Naamloos_verloop_7"/><linearGradient id="Naamloos_verloop_7-5" x1="679.59" y1="650.13" x2="857.93" y2="650.13" xlink:href="#Naamloos_verloop_7"/><linearGradient id="Naamloos_verloop_7-6" x1="698.35" y1="662.7" x2="851.94" y2="662.7" xlink:href="#Naamloos_verloop_7"/><linearGradient id="Naamloos_verloop_7-7" x1="683.33" y1="664.38" x2="829.65" y2="664.38" xlink:href="#Naamloos_verloop_7"/><linearGradient id="Naamloos_verloop_7-8" x1="609.2" y1="680.66" x2="843.52" y2="680.66" xlink:href="#Naamloos_verloop_7"/><linearGradient id="Naamloos_verloop_7-9" x1="194.81" y1="588.06" x2="320.7" y2="588.06" xlink:href="#Naamloos_verloop_7"/><linearGradient id="Naamloos_verloop_7-10" x1="155.74" y1="609.67" x2="321.7" y2="609.67" xlink:href="#Naamloos_verloop_7"/><linearGradient id="Naamloos_verloop_7-11" x1="187.77" y1="627.34" x2="323.95" y2="627.34" xlink:href="#Naamloos_verloop_7"/><linearGradient id="Naamloos_verloop_7-12" x1="142.02" y1="650.13" x2="320.35" y2="650.13" xlink:href="#Naamloos_verloop_7"/><linearGradient id="Naamloos_verloop_7-13" x1="148.01" y1="662.7" x2="301.59" y2="662.7" xlink:href="#Naamloos_verloop_7"/><linearGradient id="Naamloos_verloop_7-14" x1="170.29" y1="664.38" x2="316.62" y2="664.38" xlink:href="#Naamloos_verloop_7"/><linearGradient id="Naamloos_verloop_7-15" x1="156.42" y1="680.66" x2="390.75" y2="680.66" xlink:href="#Naamloos_verloop_7"/><clipPath id="clip-path" transform="translate(-142.02 -299.69)"><rect x="258.08" y="571.09" width="206.2" height="136.15" rx="14.22" ry="14.22" fill="none"/></clipPath><radialGradient id="radial-gradient" cx="279.85" cy="619.91" r="85.35" gradientUnits="userSpaceOnUse"><stop offset="0" stop-color="#fff"/><stop offset="1" stop-color="#fff" stop-opacity="0"/></radialGradient></defs><title>contact</title><g style="isolation:isolate"><g id="Laag_1" data-name="Laag 1"><path d="M199.33,552.37c-39.09,24.58-59.57,80-27.92,153.8H794c10.57-26.75,16.89-61.88,18.88-82.8,4.33-45.63-11.18-93-38.52-118C705.17,442,647.65,530,611.27,492.78c-21-21.46-19-81.71-35.43-109.67C539.58,321.38,471.3,291,404,301.87c-44.79,7.27-85.2,31-109.84,71.08-33.76,54.93-9.18,94.28-24.08,132.25C253.45,547.53,225.44,535.95,199.33,552.37Z" transform="translate(-142.02 -299.69)" fill="url(#Naamloos_verloop_7)"/><path d="M401.82,464.46c-7.95,2.73-16.11,5.58-22.42,11.12S369,490.1,371.68,498.07s13.73,12.61,20.14,7.17c2.3-2,3.72-5.31,2.49-8.06-2.44-5.44-11-2.89-14.94,1.55-4.73,5.26-7.74,12.46-6.57,19.44s7.27,13.25,14.34,13.25,17.16-10.68,11.1-14.34c-7.69-4.65-17.58,6.42-21.37,14.57s-1.42,19.19,6.31,23.77,25.88-1.21,21.12-8.84c-5-8.06-19.87,3.56-21.84,12.85s5.3,19.47,14.73,20.62,25.77-9.59,19.24-16.49c-9.43-10-25.16,15.42-20.62,28.37s23.3,18.11,33.82,9.3c2-1.65,3.75-4,3.38-6.56-0.61-4.24-6.41-5.43-10.48-4.08C412,594.13,407.17,609,413.7,618s22.12,9.23,28.84.31c1.31-1.74,2.33-3.92,1.85-6.05-0.67-3-4.18-4.64-7.17-4.08s-5.4,2.81-7.1,5.33c-6,9-4,22.41,4.42,29.17s22,5.83,29.44-2c1.94-2,3.54-4.78,3-7.55-0.59-3.2-4-5.35-7.27-5.27s-6.24,1.94-8.5,4.29c-9.49,9.85-5.43,28.93,7.25,34.06s37.82-9,28.92-19.4c-5.94-6.94-17.67,8.07-16.17,17.08s11.87,15.15,20.7,12.83,20.47-15,13.65-21.07c-4.83-4.3-12.65,4.79-14.14,11.08A14.85,14.85,0,0,0,499.1,683c6.25,3.07,13.89,1.22,19.9-2.29s11-8.54,16.77-12.41a52.47,52.47,0,0,1,40.08-7.51" transform="translate(-142.02 -299.69)" fill="none" stroke="#fff" stroke-miterlimit="10" stroke-width="2.54"/><path d="M802.73,505.86c-12.87-8.21-127.58,88.49-123.38,164.89,0,0,22.33-30.16,41.8-44.86s21.36-30.08,21.33-45.32,29.07-8.94,32.35-25.84C780.63,524.82,814.32,513.25,802.73,505.86Z" transform="translate(-142.02 -299.69)" fill="url(#Naamloos_verloop_7-2)"/><path d="M810.27,577c-18.53,11.22-13.08,26.19-24,34.93-7.95,6.36-21.21,3-27.82,11.69-7.45,9.76,1,23.18,1.65,34.94,0.87,16.24-13.62,28.42-28.34,33.35-17.09,5.73-39.21,3.94-48.57-13.06-11-20.06-2.78-50.3,16.6-59.72,4.71-2.29,10.68-2.91,14.53-7.54,6.49-7.82,2.32-19.07,5.33-29,2.93-9.69,12.51-16.51,21.34-19.53s17.82-3.63,26.45-7.14c11.75-4.77,22-15.26,31.82-22.33,8.73-6.31,39.36-18.15,44.35,2.54C848.15,555,825.84,567.61,810.27,577Z" transform="translate(-142.02 -299.69)" fill="url(#Naamloos_verloop_7-3)"/><path d="M812.18,546.89S736.43,585,676,707.78" transform="translate(-142.02 -299.69)" fill="url(#Naamloos_verloop_7-4)"/><path d="M857.93,604.26s-97.4-1.09-178.33,91.75" transform="translate(-142.02 -299.69)" fill="url(#Naamloos_verloop_7-5)"/><path d="M809.63,647.69c-9.28,3.71-11.8,19.36-21.8,21.35-7.27,1.44-15-5-22.13-1.65-8,3.76-6.6,15.05-9.87,22.72-4.52,10.59-18,13.6-29.28,11.93-13.14-1.94-27.26-10.29-28.14-24.13-1-16.34,13.94-32.85,29.76-32.51,3.84,0.08,8,1.64,12-.05,6.76-2.85,7.53-11.35,12.64-16.69s13.49-6.4,20.3-5.44,13,3.51,19.8,4.1c9.3,0.8,19.42-2.5,28.13-3.8,7.77-1.16,39.53-.55,28.64,16.08C842.15,651.11,822,642.74,809.63,647.69Z" transform="translate(-142.02 -299.69)" fill="url(#Naamloos_verloop_7-6)"/><path d="M829.65,632.36s-67.66,5.76-146.33,64" transform="translate(-142.02 -299.69)" fill="url(#Naamloos_verloop_7-7)"/><path d="M609.2,705.09s15.4-27,17.91-29.73c15.84-17.53,36.84-17.72,58.23-13.3,6.19,1.28,22.57,9.89,28.51,8.7,4.63-.93,10.19-18.52,25-17.6s15.71,18.52,15.71,18.52,9.3-20.45,24.12-18.56,14.82,15.69,3.7,25.92c0,0,23.62-7.09,46.54,3.89s12,25.37,12,25.37Z" transform="translate(-142.02 -299.69)" fill="url(#Naamloos_verloop_7-8)"/><path d="M197.21,505.86c12.87-8.21,127.58,88.49,123.38,164.89,0,0-22.33-30.16-41.8-44.86s-21.36-30.08-21.33-45.32-29.07-8.94-32.35-25.84C219.31,524.82,185.63,513.25,197.21,505.86Z" transform="translate(-142.02 -299.69)" fill="url(#Naamloos_verloop_7-9)"/><path d="M189.68,577c18.53,11.22,13.08,26.19,24,34.93,7.95,6.36,21.21,3,27.82,11.69,7.45,9.76-1,23.18-1.65,34.94C239,674.83,253.47,687,268.19,691.94c17.09,5.73,39.21,3.94,48.57-13.06,11-20.06,2.78-50.3-16.6-59.72-4.71-2.29-10.68-2.91-14.53-7.54-6.49-7.82-2.32-19.07-5.33-29-2.93-9.69-12.51-16.51-21.34-19.53s-17.82-3.63-26.45-7.14c-11.75-4.77-22-15.26-31.82-22.33-8.73-6.31-39.36-18.15-44.35,2.54C151.8,555,174.11,567.61,189.68,577Z" transform="translate(-142.02 -299.69)" fill="url(#Naamloos_verloop_7-10)"/><path d="M187.77,546.89S263.51,585,324,707.78" transform="translate(-142.02 -299.69)" fill="url(#Naamloos_verloop_7-11)"/><path d="M142,604.26s97.4-1.09,178.33,91.75" transform="translate(-142.02 -299.69)" fill="url(#Naamloos_verloop_7-12)"/><path d="M190.32,647.69c9.28,3.71,11.8,19.36,21.8,21.35,7.27,1.44,15-5,22.13-1.65,8,3.76,6.6,15.05,9.87,22.72,4.52,10.59,18,13.6,29.28,11.93,13.14-1.94,27.26-10.29,28.14-24.13,1-16.34-13.94-32.85-29.76-32.51-3.84.08-8,1.64-12-.05-6.76-2.85-7.53-11.35-12.64-16.69s-13.49-6.4-20.3-5.44-13,3.51-19.8,4.1c-9.3.8-19.42-2.5-28.13-3.8-7.77-1.16-39.53-.55-28.64,16.08C157.79,651.11,177.95,642.74,190.32,647.69Z" transform="translate(-142.02 -299.69)" fill="url(#Naamloos_verloop_7-13)"/><path d="M170.29,632.36s67.66,5.76,146.33,64" transform="translate(-142.02 -299.69)" fill="url(#Naamloos_verloop_7-14)"/><path d="M390.75,705.09s-15.4-27-17.91-29.73C357,657.83,336,657.64,314.61,662.07c-6.19,1.28-22.57,9.89-28.51,8.7-4.63-.93-10.19-18.52-25-17.6s-15.71,18.52-15.71,18.52-9.3-20.45-24.12-18.56-14.82,15.69-3.7,25.92c0,0-23.62-7.09-46.54,3.89s-12,25.37-12,25.37Z" transform="translate(-142.02 -299.69)" fill="url(#Naamloos_verloop_7-15)"/><path d="M556.67,707.44h-24a5.08,5.08,0,0,1-5.07-4.66l-1.57-18.92H563.3l-1.57,18.92A5.08,5.08,0,0,1,556.67,707.44Z" transform="translate(-142.02 -299.69)" fill="#21295b"/><path d="M698.13,707.44h-24a5.08,5.08,0,0,1-5.07-4.66l-1.57-18.92h37.23l-1.57,18.92A5.08,5.08,0,0,1,698.13,707.44Z" transform="translate(-142.02 -299.69)" fill="#21295b"/><path d="M702.29,659H528.55l12.29-89.56a14.11,14.11,0,0,1,14-12.19H676a14.11,14.11,0,0,1,14,12.19Z" transform="translate(-142.02 -299.69)" fill="#f05"/><path d="M678.84,641.67H552l9-90a13.08,13.08,0,0,1,13-11.78h82.78a13.08,13.08,0,0,1,13,11.78Z" transform="translate(-142.02 -299.69)" fill="#f05"/><polygon points="389.32 339.03 386.53 359.36 560.27 359.36 557.48 339.03 389.32 339.03" fill="#cfcfcf" style="mix-blend-mode:multiply"/><polygon points="579.07 394.11 367.73 394.11 371.64 348.19 575.16 348.19 579.07 394.11" fill="#f05"/><circle cx="615.42" cy="595.9" r="38.67" transform="translate(-320.23 -26.28) rotate(-21.96)" fill="#cfcfcf" style="mix-blend-mode:multiply"/><circle cx="615.42" cy="595.9" r="33.43" transform="translate(-320.23 -26.28) rotate(-21.96)" fill="#fff"/><path d="M624.76,623.4a4.36,4.36,0,0,1-3.07-1.27,3.51,3.51,0,0,1-.53-0.67,4.32,4.32,0,0,1-.41-0.74,6,6,0,0,1-.25-0.81,5,5,0,0,1-.09-0.86,4.35,4.35,0,0,1,5.2-4.25,4.67,4.67,0,0,1,.81.25,4.91,4.91,0,0,1,.76.4,4.66,4.66,0,0,1,.66.55,4.37,4.37,0,0,1,1.28,3.06,5,5,0,0,1-.09.86,6,6,0,0,1-.25.81,5.39,5.39,0,0,1-.4.74,4.11,4.11,0,0,1-.55.67,4.52,4.52,0,0,1-.66.53,3.41,3.41,0,0,1-.76.4,3.78,3.78,0,0,1-.81.25A4,4,0,0,1,624.76,623.4Z" transform="translate(-142.02 -299.69)" fill="#b3b3b3"/><path d="M611.31,624.93h0a4.34,4.34,0,0,1-3.68-4.91h0a4.34,4.34,0,0,1,4.91-3.68h0a4.35,4.35,0,0,1,3.68,4.91h0a4.35,4.35,0,0,1-4.3,3.73h0A3.4,3.4,0,0,1,611.31,624.93Zm-14-5.93h0a4.35,4.35,0,0,1-.74-6.1h0a4.34,4.34,0,0,1,6.09-.74h0a4.34,4.34,0,0,1,.74,6.09h0a4.32,4.32,0,0,1-3.42,1.67h0A4.32,4.32,0,0,1,597.36,619Zm-9.12-12.13a4.33,4.33,0,0,1,2.39-5.64h0a4.34,4.34,0,0,1,5.65,2.39h0a4.36,4.36,0,0,1-2.41,5.65h0a4.37,4.37,0,0,1-1.62.31h0A4.31,4.31,0,0,1,588.24,606.87Zm1.84-10.14a4.35,4.35,0,0,1-3.7-4.91h0a4.35,4.35,0,0,1,4.91-3.68h0A4.34,4.34,0,0,1,595,593h0a4.35,4.35,0,0,1-4.3,3.73h0A5,5,0,0,1,590.08,596.73Zm3-12.77a4.34,4.34,0,0,1-.76-6.09h0a4.33,4.33,0,0,1,6.09-.76h0a4.33,4.33,0,0,1,.76,6.09h0a4.31,4.31,0,0,1-3.42,1.67h0A4.32,4.32,0,0,1,593.07,584Zm35-4.32a4.33,4.33,0,0,1-.76-6.09h0a4.34,4.34,0,0,1,6.09-.77h0a4.35,4.35,0,0,1,.76,6.1h0a4.35,4.35,0,0,1-3.42,1.67h0A4.37,4.37,0,0,1,628.11,579.64ZM602,574.38a4.33,4.33,0,0,1,2.39-5.64h0a4.34,4.34,0,0,1,5.66,2.39h0a4.35,4.35,0,0,1-2.41,5.65h0a4.35,4.35,0,0,1-1.62.31h0A4.32,4.32,0,0,1,602,574.38Zm16.23,1.09a4.34,4.34,0,0,1-3.68-4.91h0a4.33,4.33,0,0,1,4.9-3.68h0a4.33,4.33,0,0,1,3.7,4.9h0a4.34,4.34,0,0,1-4.29,3.73h0A5.18,5.18,0,0,1,618.27,575.47Z" transform="translate(-142.02 -299.69)" fill="#b3b3b3"/><path d="M638.58,590.91a4.76,4.76,0,0,1-.84-0.09,4.5,4.5,0,0,1-.82-0.25,5.32,5.32,0,0,1-.74-0.4,4.73,4.73,0,0,1-.67-0.55,4.36,4.36,0,0,1-1.27-3.06,4,4,0,0,1,.09-0.86,3.81,3.81,0,0,1,.25-0.81,4.31,4.31,0,0,1,.4-0.76,4.55,4.55,0,0,1,.53-0.66,4,4,0,0,1,.67-0.53,3.91,3.91,0,0,1,.74-0.41,4.45,4.45,0,0,1,.82-0.24,4.37,4.37,0,0,1,3.91,1.18,3.93,3.93,0,0,1,.55.66,4.39,4.39,0,0,1,.4.76,3.81,3.81,0,0,1,.25.81,4,4,0,0,1,.09.86A4.36,4.36,0,0,1,638.58,590.91Z" transform="translate(-142.02 -299.69)" fill="#b3b3b3"/><path d="M565.56,455.07a18.55,18.55,0,0,1,3.72-19.4S600.73,456,635.87,450.3c0,0,3.85,10.6-6.95,20.41C628.92,470.71,591.31,477.84,565.56,455.07Z" transform="translate(-142.02 -299.69)" fill="#c31b4b"/><path d="M619.39,410c-22.62-19.08-65.48-21.76-119.73-13-46.65,7.51-94.16,25.13-110,50-7.22,11.33-2.32,42.82-2.32,42.82,43,2.68,58.71-34.26,58.71-34.26s-2.87-10.48,6.75-15.12c33.69-16.21,85.92-21.75,105.35-17a14.39,14.39,0,0,1,11.16,12.23s26.54,30.14,66.5,14.1C635.79,449.77,629.66,418.63,619.39,410Z" transform="translate(-142.02 -299.69)" fill="#f05"/><path d="M454.81,472.4a18.54,18.54,0,0,0-9.62-17.25s-23.46,29.21-58.63,34.78c0,0-.33,11.27,13,17.2C399.57,507.14,437.52,502.11,454.81,472.4Z" transform="translate(-142.02 -299.69)" fill="#c31b4b"/><g clip-path="url(#clip-path)"><rect x="116.06" y="271.4" width="206.2" height="136.15" rx="14.22" ry="14.22" fill="#ffd474"/><path d="M464.28,589.15a18.07,18.07,0,0,0-18.07-18.07H276.15a18.07,18.07,0,0,0-18.07,18.07l93.5,75.8a15.07,15.07,0,0,0,19,0Z" transform="translate(-142.02 -299.69)" fill="#ffd474" style="mix-blend-mode:multiply"/><path d="M270.12,693.18v-100a18.07,18.07,0,0,1,18.07-18.07H457.44a17.9,17.9,0,0,0-11.23-4H276.15a18.07,18.07,0,0,0-18.07,18.07v100a18.07,18.07,0,0,0,18.07,18.07H277A18,18,0,0,1,270.12,693.18Z" transform="translate(-142.02 -299.69)" opacity="0.7" fill="url(#radial-gradient)" style="mix-blend-mode:overlay"/><path d="M349.79,651.78l-91.7-80.69h206.2l-91.7,80.69A17.25,17.25,0,0,1,349.79,651.78Z" transform="translate(-142.02 -299.69)" fill="#ffd474"/><path d="M349.79,651.78l-91.7-80.69h206.2l-91.7,80.69A17.25,17.25,0,0,1,349.79,651.78Z" transform="translate(-142.02 -299.69)" fill="#ffd474" opacity="0.7" style="mix-blend-mode:overlay"/></g><path d="M526,488.73s5.87-16.94,6.28-18.8c2.43-11,3.09-34.86,2.94-39.94s-0.62-9.53-.72-10.21-3.25-4.07-3.26-4a6.86,6.86,0,0,1-1,.1l0,0.64-1.36-1.17-1.13-.06-0.12.53L526,415l-1.56,0s1,3.22,1.58,5.18,0,2.12,0,2.12a4.27,4.27,0,0,1-1.75.32,12.16,12.16,0,0,0-2.21-.1s4.74,6.16,5,6.74,3.55,5.56,2.54,11.1c-1.81,9.92-7.39,22.47-7.39,22.47,2,0-6.38,18.28-6.38,18.28Z" transform="translate(-142.02 -299.69)" fill="#fec4ad"/><path d="M522.83,511.14c4.71-30,13.42-40.95,12.19-70.09,0,0-3.27,1.08-6.15-2.88,0.73,2.77-13.93,48.57-17,50-5.21,2.34-5.87,10.79-1.57,13.85S521.19,515.87,522.83,511.14Z" transform="translate(-142.02 -299.69)"/><path d="M480.11,698.22v9.16h17.61s-0.66-3.32-9-4.85l-1.23-4.32h-7.37Z" transform="translate(-142.02 -299.69)" fill="#fff"/><path d="M506.89,698.22v9.16H524.5s-0.66-3.32-9-4.85l-1.23-4.32h-7.37Z" transform="translate(-142.02 -299.69)" fill="#fff"/><path d="M483.07,561.82s-2.46,25.61-2.55,49.67S479,700.32,479,700.32h9.72s10-62.35,13.66-77.83,13.12-60.39,13.12-60.39Z" transform="translate(-142.02 -299.69)"/><path d="M498,476.9s-0.63,4.9-1.15,7.39a19.94,19.94,0,0,1-1.33,4.57c-0.84,1.69-6,6.83-6,6.83s16.12,8.51,20.85,8.51,3.08-9.5,3.08-9.5-5.17-4.08-5.94-6.15-1.2-8-1.2-8Z" transform="translate(-142.02 -299.69)" fill="#fec4ad"/><path d="M504.2,589.6s1.82,40.58,2.19,47.8,0,62.88,0,62.88,9.11,0.25,9.11,0,8.59-63.18,9.7-81,0.46-38.89,1.94-41.35-4-16-4-16l-12.89-.47Z" transform="translate(-142.02 -299.69)"/><path d="M492.81,490.89s-13.61-5.46-15.86-1c-1.7,3.39-.24,25.16.52,31.24,0.66,5.29,4.32,49.81,4.32,49.81s5.09,7.88,29.56,4.74c9.44-1.21,14.08-5.81,14.08-5.81s-2.65-53.12-3.37-58.45a114.87,114.87,0,0,0-3.25-13.65l-7.29-4.8s2.32,5.13-4.25,6.59C494,502.54,492.81,490.89,492.81,490.89Z" transform="translate(-142.02 -299.69)"/><path d="M510.89,458.37c1.54,0.62,4.24,2,4.54,3.3A51.21,51.21,0,0,1,517,469c0.14,2.26.47,6.54,0.46,9.2s-1.61,8.06-2.22,8.63-5.08,1.5-6.6,1.07-10.39-5-11-10.65c0,0-1.57.83-4.47-3.86-0.76-1.22,1.85-10.32,2.2-11.94,0.85-3.94,10.56-.83,12.74-1.46A4.73,4.73,0,0,0,510.89,458.37Z" transform="translate(-142.02 -299.69)" fill="#fec4ad"/><path d="M515.43,461.67s-6.8,4.26-9.46,4.48-6.55,3.87-6.48,5a2.46,2.46,0,0,1-1.12,1.91s-1.65-2.63-3-2.36c-2.68.54-1.11,3.85,0.35,4.58a22.49,22.49,0,0,0,2.87,1.18,13.9,13.9,0,0,1,.13,2.84,13,13,0,0,1-1.13,3.32s-3.14-6.61-6-9.08c-6.69-5.87-1.85-16.77,4.75-18.82,2.66-.83,10-1.38,13.54.22A9.7,9.7,0,0,1,515.43,461.67Z" transform="translate(-142.02 -299.69)" fill="#af7900"/><path d="M471.22,489.13s-4.57-19.47-4.6-21.38c-0.18-11.27,3.78-26.18,4.94-31.12s1.94-4.16,2.17-4.81,8.42-1.9,8.42-1.9a21.74,21.74,0,0,1,2.71-1c0.51-.05,2.67-0.7,2.67-0.7l-1.26,2.26s-5.1,3.88-5.43,4.4a11.16,11.16,0,0,0-3.65,8.36c-0.21,10.08-.18,21-0.18,21-0.07-.37,4.83,20.88,4.83,20.88Z" transform="translate(-142.02 -299.69)" fill="#fec4ad"/><path d="M477.47,521.16c-12.72-49.69-16-54.42-8.37-76.15,0,0,4.78,1.86,8.1-1.74-0.3,8,1.79,43.63,9.61,51.8,4.14,3.94,4.58,11.4-.06,13.94C482.28,511.46,481.1,524.6,477.47,521.16Z" transform="translate(-142.02 -299.69)"/><path d="M512.9,462.65c3.37-.76,2.52-6.09,2.34-8.55h-3c0.08,0.58,1,5.68-.11,5.64l1.5,1.5,1-9.57-2.95.4a5.05,5.05,0,0,1,.26,3.34l2.2-.9-0.76-1.4a1.52,1.52,0,0,0-2.26-1.3l-3.76,1.61,1.82,2.36A8.53,8.53,0,0,1,513.1,454l-1.16-2.74a5,5,0,0,1-3,1.26l1.85,1-0.2-1.31c-0.26-1.67-3-1.27-2.95.4l-0.47.71,1.5,1.5-0.19-1.52c-0.17-1.34-2-2.21-2.8-.76l-3,.86-1.3,2.26,3.41-.38v-3c-2.4.31-5.49,0.15-7.6,1.48A9.86,9.86,0,0,0,494,457.2c-0.76,1.75,1.82,3.28,2.59,1.51,1.23-2.82,5.62-3.08,8.18-3.41,1.87-.24,1.93-3.21,0-3l-3.41.38a1.52,1.52,0,0,0-1.3,2.26c2.16,3.67,6.4,2.45,8.19-.86l-2.8-.76,0.19,1.52a1.53,1.53,0,0,0,1.5,1.5c2.2-.16,3.57-1.43,3.47-3.71l-2.95.4,0.2,1.31a1.53,1.53,0,0,0,1.85,1,8.94,8.94,0,0,0,3.7-1.56,1.51,1.51,0,0,0-1.16-2.74,11.56,11.56,0,0,0-5.24,2.59c-1.37,1.24.37,3,1.82,2.36l3.76-1.61-2.26-1.3a3.94,3.94,0,0,0,2.25,4,1.51,1.51,0,0,0,2.2-.9,9.25,9.25,0,0,0-.26-4.93,1.51,1.51,0,0,0-2.95.4l-1,9.57a1.52,1.52,0,0,0,1.5,1.5c4.8,0.17,3.5-5.63,3.11-8.64-0.24-1.86-3.14-2-3,0,0,0.56.5,5.51-.14,5.66-1.88.42-1.09,3.32,0.8,2.89h0Z" transform="translate(-142.02 -299.69)" fill="#af7900"/></g></g></svg>