<svg id="Laag_1" data-name="Laag 1" xmlns="http://www.w3.org/2000/svg" xmlns:xlink="http://www.w3.org/1999/xlink" viewBox="0 0 346.2 314.2"><defs><linearGradient id="Naamloos_verloop_7" x1="853.74" y1="938.19" x2="1082.06" y2="806.37" gradientTransform="translate(1523.79 -306.15) rotate(73.23)" gradientUnits="userSpaceOnUse"><stop offset="0" stop-color="#36c16c"/><stop offset="1" stop-color="#cff900"/></linearGradient></defs><title>kiwi</title><ellipse cx="967.9" cy="872.28" rx="126.89" ry="137.18" transform="translate(-904.65 861.41) rotate(-73.23)" fill="url(#Naamloos_verloop_7)"/><path d="M914.93,719.11a123.64,123.64,0,1,1-87.43,36.21,122.83,122.83,0,0,1,87.43-36.21m0-33.2a156.85,156.85,0,1,0,156.85,156.85A156.85,156.85,0,0,0,914.93,685.9h0Z" transform="translate(-758.09 -685.9)"/><ellipse cx="156.85" cy="87.88" rx="10.1" ry="22.32"/><ellipse cx="156.85" cy="225.81" rx="10.1" ry="22.32"/><ellipse cx="225.81" cy="156.85" rx="22.32" ry="10.1"/><ellipse cx="87.88" cy="156.85" rx="22.32" ry="10.1"/><ellipse cx="962.1" cy="795.58" rx="22.32" ry="10.1" transform="translate(-1038.86 227.42) rotate(-45)"/><ellipse cx="867.77" cy="889.91" rx="22.32" ry="10.1" transform="translate(-1133.19 188.35) rotate(-45)"/><ellipse cx="962.1" cy="889.91" rx="10.1" ry="22.32" transform="translate(-1105.56 255.05) rotate(-45)"/><ellipse cx="867.77" cy="795.58" rx="10.1" ry="22.32" transform="translate(-1066.49 160.72) rotate(-45)"/></svg>