<svg id="Laag_1" data-name="Laag 1" xmlns="http://www.w3.org/2000/svg" viewBox="0 0 1000 1000"><title>logofolio</title><rect width="1000" height="1000"/><path d="M342.7,464.85h9.85v27.6h13.5v9.9H342.7v-37.5Z" fill="#fff"/><path d="M389.55,464.85a18.75,18.75,0,1,1-18.7,18.8A18.8,18.8,0,0,1,389.55,464.85Zm0,9.8a9,9,0,1,0,9,9A8.93,8.93,0,0,0,389.55,474.65Z" fill="#fff"/><path d="M451.3,482.2v1.4a18.78,18.78,0,1,1-5.55-13.3l-7,6.9a9,9,0,0,0-6.25-2.5,8.9,8.9,0,1,0,7.25,14.1h-7.25v-6.6H451.3Z" fill="#fff"/><path d="M473.9,464.85a18.75,18.75,0,1,1-18.7,18.8A18.8,18.8,0,0,1,473.9,464.85Zm0,9.8a9,9,0,1,0,9,9A8.93,8.93,0,0,0,473.9,474.65Z" fill="#fff"/><path d="M499.5,464.85H523v8.1H509.35V479H521.4v8.35H509.35v15H499.5v-37.5Z" fill="#fff"/><path d="M548,464.85a18.75,18.75,0,1,1-18.7,18.8A18.8,18.8,0,0,1,548,464.85Zm0,9.8a9,9,0,1,0,9,9A8.93,8.93,0,0,0,548,474.65Z" fill="#fff"/><path d="M573.6,464.85h9.85v27.6H597v9.9H573.6v-37.5Z" fill="#fff"/><path d="M603.95,464.85h9.85v37.5h-9.85v-37.5Z" fill="#fff"/><path d="M639.3,464.85a18.75,18.75,0,1,1-18.7,18.8A18.8,18.8,0,0,1,639.3,464.85Zm0,9.8a9,9,0,1,0,9,9A8.93,8.93,0,0,0,639.3,474.65Z" fill="#fff"/><path d="M477.78,515.85l-10.5,22.5h-0.66L456,515.85h0.66L467,537.66l10.17-21.81h0.66Z" fill="#fff"/><path d="M491.13,515.85a11.25,11.25,0,1,1-11.25,11.25A11.24,11.24,0,0,1,491.13,515.85Zm0,21.93a10.68,10.68,0,1,0-10.68-10.68A10.65,10.65,0,0,0,491.13,537.78Z" fill="#fff"/><path d="M507.88,537.78h13.47v0.57h-14v-22.5h0.57v21.93Z" fill="#fff"/><path d="M527,537.18a0.6,0.6,0,0,1,.6.6,0.58,0.58,0,0,1-.6.57,0.55,0.55,0,0,1-.57-0.57A0.58,0.58,0,0,1,527,537.18Z" fill="#fff"/><path d="M537.57,515.85h0.6v22.5h-0.6v-22.5Z" fill="#fff"/></svg>