<svg id="Laag_1" data-name="Laag 1" xmlns="http://www.w3.org/2000/svg" viewBox="0 0 2000 2000"><title>logofolio</title><rect width="2000" height="2000"/><path d="M685.41,959.59h19.7v55.2h27v19.8h-46.7v-75Z" fill="#fff"/><path d="M779.11,959.59a37.5,37.5,0,1,1-37.4,37.6A37.6,37.6,0,0,1,779.11,959.59Zm0,19.6A17.9,17.9,0,1,0,797,997.1,17.86,17.86,0,0,0,779.11,979.2Z" fill="#fff"/><path d="M902.61,994.3v2.8a37.56,37.56,0,1,1-11.1-26.6l-13.9,13.8a17.94,17.94,0,0,0-12.5-5,17.8,17.8,0,1,0,14.5,28.2h-14.5V994.3h37.5Z" fill="#fff"/><path d="M947.8,959.59a37.5,37.5,0,1,1-37.4,37.6A37.6,37.6,0,0,1,947.8,959.59Zm0,19.6a17.9,17.9,0,1,0,17.9,17.9A17.86,17.86,0,0,0,947.8,979.2Z" fill="#fff"/><path d="M999,959.59h47v16.2h-27.3V988h24.1v16.7h-24.1v29.9H999v-75Z" fill="#fff"/><path d="M1096,959.59a37.5,37.5,0,1,1-37.4,37.6A37.6,37.6,0,0,1,1096,959.59Zm0,19.6a17.9,17.9,0,1,0,17.9,17.9A17.86,17.86,0,0,0,1096,979.2Z" fill="#fff"/><path d="M1147.2,959.59h19.7v55.2h27v19.8h-46.7v-75Z" fill="#fff"/><path d="M1207.9,959.59h19.7v75h-19.7v-75Z" fill="#fff"/><path d="M1278.6,959.59a37.5,37.5,0,1,1-37.4,37.6A37.6,37.6,0,0,1,1278.6,959.59Zm0,19.6a17.9,17.9,0,1,0,17.9,17.9A17.86,17.86,0,0,0,1278.6,979.2Z" fill="#fff"/></svg>