<svg id="Laag_1" data-name="Laag 1" xmlns="http://www.w3.org/2000/svg" xmlns:xlink="http://www.w3.org/1999/xlink" viewBox="0 0 645.45 531.1"><defs><linearGradient id="Naamloos_verloop_7" x1="755.76" y1="541.98" x2="822.72" y2="541.98" gradientUnits="userSpaceOnUse"><stop offset="0" stop-color="#36c16c"/><stop offset="1" stop-color="#cff900"/></linearGradient></defs><title>whatido</title><path d="M9.92,136.33H543.16a0,0,0,0,1,0,0V463.69a10.93,10.93,0,0,1-10.93,10.93H9.92a0,0,0,0,1,0,0V136.33A0,0,0,0,1,9.92,136.33Z" opacity="0.1"/><rect x="168.75" y="173.83" width="218.83" height="116.31" rx="3.19" ry="3.19" fill="#fff"/><rect x="414" y="173.83" width="99.53" height="106.43" rx="2.3" ry="2.3" fill="#fff"/><rect x="300.78" y="309.71" width="212.75" height="131.76" rx="2.26" ry="2.26" fill="#fff"/><g opacity="0.1"><rect x="167.52" y="323.05" width="94.94" height="6.6" rx="1.05" ry="1.05"/><rect x="167.52" y="343.75" width="94.94" height="6.6" rx="1.05" ry="1.05"/><rect x="167.52" y="364.44" width="67.26" height="6.6" rx="1.05" ry="1.05"/><rect x="167.52" y="385.14" width="67.26" height="6.6" rx="1.05" ry="1.05"/><rect x="167.52" y="426.7" width="67.26" height="6.6" rx="1.05" ry="1.05"/><rect x="167.52" y="405.83" width="94.94" height="6.6" rx="1.05" ry="1.05"/></g><g opacity="0.1"><rect x="191.89" y="250.49" width="128.01" height="6.6" rx="1.05" ry="1.05"/><rect x="191.89" y="265.99" width="69.75" height="6.6" rx="1.05" ry="1.05"/></g><g opacity="0.1"><rect x="428.31" y="265.99" width="11.49" height="6.6" rx="1.05" ry="1.05"/></g><g opacity="0.1"><rect x="428.31" y="251.77" width="71.28" height="6.6" rx="1.05" ry="1.05"/></g><path d="M0,136.33H138.18a0,0,0,0,1,0,0V474.62a0,0,0,0,1,0,0H8.86A8.86,8.86,0,0,1,0,465.76V136.33A0,0,0,0,1,0,136.33Z" fill="#f05"/><path d="M4.06,103.67h535a4.06,4.06,0,0,1,4.06,4.06v28.6a0,0,0,0,1,0,0H0a0,0,0,0,1,0,0v-28.6A4.06,4.06,0,0,1,4.06,103.67Z" opacity="0.2"/><circle cx="36.51" cy="120" r="6.59" fill="#f05"/><circle cx="56.05" cy="120" r="6.59" fill="#ffd474"/><circle cx="75.58" cy="120" r="6.59" fill="#3fc44e"/><circle cx="69.09" cy="216.89" r="43.06" fill="#fff"/><circle cx="69.25" cy="205.8" r="11.5" fill="#f05"/><path d="M221.31,470.66l4.13-7.68a13.59,13.59,0,0,1,12-7.15h16.73a13.59,13.59,0,0,1,11.26,6l6,8.85H221.31Z" transform="translate(-177.27 -234.45)" fill="#f05"/><path d="M763.13,558.9h-0.05c6.46-6.75,3.42-14.2,2.25-16.47h0c-0.23-.44-0.39-0.7-0.39-0.7H765a27.13,27.13,0,0,1,5-31.5c4.52-6,1.1-13.95,1.1-13.95h0a19.23,19.23,0,1,1,36.25,0h0s-3.42,8,1.1,13.95a27.13,27.13,0,0,1,5,31.5h0l-0.08.14c-0.15.3-.31,0.6-0.47,0.89a13.86,13.86,0,0,0,1.79,15.41l0.49,0.58,0.14,0.16h0A33.48,33.48,0,1,1,763.13,558.9Z" transform="translate(-177.27 -234.45)" fill="url(#Naamloos_verloop_7)"/><path d="M779.4,577l8.2,8.11V556.56l-10.07-10a1.33,1.33,0,0,1,1.87-1.89l8.2,8.11V513.5a1.33,1.33,0,1,1,2.66,0v23.7l8-7.93a1.33,1.33,0,0,1,1.88,1.89l-9.85,9.8v28.63l8.81-8.9a1.33,1.33,0,0,1,1.89,1.87l-10.71,10.81v76a1.33,1.33,0,1,1-2.66,0V588.82l-10.07-10A1.33,1.33,0,0,1,779.4,577Z" transform="translate(-177.27 -234.45)"/><g opacity="0.1"><path d="M542,256.95H467.1s5.49-22.5,24.86-22.5a28.34,28.34,0,0,1,24.71,13.78c5.66-2.21,17.85-4.9,25.34,8.72" transform="translate(-177.27 -234.45)"/><path d="M633.3,278.46a20.18,20.18,0,0,1,10.13,2.73,32.5,32.5,0,0,1,55.63-2,25.26,25.26,0,0,1,49.52,4.49,20.2,20.2,0,0,1,3.21-.28A20.61,20.61,0,0,1,770.1,294.8H613.19A20.79,20.79,0,0,1,633.3,278.46Z" transform="translate(-177.27 -234.45)"/></g><g opacity="0.2"><path d="M687.17,765.55a2,2,0,0,1-1.77-1.08L580.82,562.29a2,2,0,1,1,3.54-1.83L688.94,762.64A2,2,0,0,1,687.17,765.55Z" transform="translate(-177.27 -234.45)"/><path d="M726,765.55a2,2,0,0,1-1.77-1.08L619.66,562.29a2,2,0,1,1,3.54-1.83L727.78,762.64A2,2,0,0,1,726,765.55Z" transform="translate(-177.27 -234.45)"/><path d="M713.7,741.76H674.86a2,2,0,1,1,0-4H713.7A2,2,0,1,1,713.7,741.76Z" transform="translate(-177.27 -234.45)"/><path d="M690.15,697.82H652.31a2,2,0,0,1,0-4h37.85A2,2,0,0,1,690.15,697.82Z" transform="translate(-177.27 -234.45)"/><path d="M667.6,653.89H629.75a2,2,0,0,1,0-4H667.6A2,2,0,0,1,667.6,653.89Z" transform="translate(-177.27 -234.45)"/><path d="M645,610H607.2a2,2,0,0,1,0-4H645A2,2,0,1,1,645,610Z" transform="translate(-177.27 -234.45)"/></g><path d="M512.87,765.55a2,2,0,0,1-1.77-2.91L615.68,560.46a2,2,0,1,1,3.54,1.83L514.64,764.47A2,2,0,0,1,512.87,765.55Z" transform="translate(-177.27 -234.45)" fill="#f05"/><path d="M474,765.55a2,2,0,0,1-1.77-2.91L576.84,560.46a2,2,0,1,1,3.54,1.83L475.8,764.47A2,2,0,0,1,474,765.55Z" transform="translate(-177.27 -234.45)" fill="#f05"/><path d="M525.18,741.76H486.34a2,2,0,1,1,0-4h38.84A2,2,0,1,1,525.18,741.76Z" transform="translate(-177.27 -234.45)" fill="#f05"/><path d="M547.73,697.82H509.88a2,2,0,0,1,0-4h37.85A2,2,0,1,1,547.73,697.82Z" transform="translate(-177.27 -234.45)" fill="#f05"/><path d="M570.29,653.89H532.44a2,2,0,0,1,0-4h37.85A2,2,0,0,1,570.29,653.89Z" transform="translate(-177.27 -234.45)" fill="#f05"/><path d="M592.84,610H555a2,2,0,0,1,0-4h37.85A2,2,0,0,1,592.84,610Z" transform="translate(-177.27 -234.45)" fill="#f05"/><rect x="394.36" y="316.97" width="56.77" height="9.96" rx="0.95" ry="0.95" fill="#f05"/><circle cx="208.94" cy="212.72" r="20.95" opacity="0.1"/><circle cx="462.84" cy="214.45" r="24.18" opacity="0.1"/><circle cx="463.77" cy="206.02" r="24.18" fill="#f05"/><circle cx="628.2" cy="461.18" r="5.63" transform="translate(-193.81 -211.03) rotate(-2.11)" fill="#ffbda1"/><circle cx="305.26" cy="344.63" r="5.63" fill="#ffbda1"/><rect x="484.83" y="565.1" width="6.68" height="13.35" transform="translate(248.61 -411.91) rotate(35.74)" fill="#ffbda1"/><polygon points="369.01 251.57 370.37 272.12 380.91 269.62 379.56 250.73 369.01 251.57" fill="#ffbda1"/><path d="M574.13,538.76V501.25a6,6,0,0,0-7.64-5.84L556,498.26a53.51,53.51,0,0,0-9.41,3.54l-10.85,5.3a4.57,4.57,0,0,0-2.56,4.1v34.57Z" transform="translate(-177.27 -234.45)"/><path d="M567.23,507.34L564.33,496l34.08-8.72,22.16-26.12,8.91,7.56-23.37,27.54a5.84,5.84,0,0,1-3,1.88Z" transform="translate(-177.27 -234.45)"/><path d="M491.16,577l-9.32-7,25.87-34.22a5.86,5.86,0,0,1,.47-0.54l26.66-27.43,8.43,8L516.81,543Z" transform="translate(-177.27 -234.45)"/><polygon points="366.21 406.91 373.49 392.41 382.05 392.41 374.54 407.43 366.21 406.91" fill="#ffbda1"/><path d="M571,649.85L543,650V641.4l19.28-.08a8.59,8.59,0,0,1,8.64,8.53h0Z" transform="translate(-177.27 -234.45)" fill="#bfbfbf"/><polygon points="325.26 411.41 331.65 397.84 339.25 400.46 331.34 417.13 325.26 411.41" fill="#ffbda1"/><path d="M533.23,544.76v1.9c0,11.22,11.58,12.31,24.14,10.28h0c9.71-1.57,16.75-6.28,16.75-15v-3.24Z" transform="translate(-177.27 -234.45)"/><path d="M556.83,543.21l-13.8,51-0.24.88a6.75,6.75,0,0,1-.58,1.44l-24.62,42.79L503,636.13l24.57-47.38-0.82,2.32,6.45-46.31Z" transform="translate(-177.27 -234.45)"/><path d="M574.13,538.76l7.74,45.69,0.13,0.85a8.2,8.2,0,0,1-.58,4.41l-20.22,42.58-16-.78L566,583.07l-0.46,5.26-14.38-43.23Z" transform="translate(-177.27 -234.45)"/><path d="M542.12,504s3.49-11.53,18.68-7.36Z" transform="translate(-177.27 -234.45)" fill="#ffd474"/><circle cx="537.31" cy="481.42" r="3.33" transform="translate(-215.54 -187.98) rotate(-4.78)" fill="#ffbda1"/><circle cx="563.98" cy="479.19" r="3.33" transform="translate(-215.26 -185.77) rotate(-4.78)" fill="#ffbda1"/><circle cx="550.39" cy="477.45" r="13.69" transform="translate(-215.16 -186.91) rotate(-4.78)" fill="#af7900"/><path d="M505.86,669.21h0a5.61,5.61,0,0,1-5.61-5.61V647.38a5.61,5.61,0,0,1,5.61-5.61h0a5.61,5.61,0,0,1,5.61,5.61v16.21A5.61,5.61,0,0,1,505.86,669.21Z" transform="translate(-177.27 -234.45)" fill="#bfbfbf"/></svg>