<svg id="Laag_1" data-name="Laag 1" xmlns="http://www.w3.org/2000/svg" viewBox="0 0 461.35 422.84"><title>whatiuse</title><path d="M347.19,541.88l-40.94,40.94h-17l-19.53,19.53a126.17,126.17,0,0,1-.76-13.64,124.77,124.77,0,1,1,96.7,121.51l73.5-73.5Z" transform="translate(-268.98 -290.58)" fill="#cecece"/><path d="M269.74,602.35l19.53-19.53h17l40.94-40.94,92,94.83-73.5,73.5A124.75,124.75,0,0,1,269.74,602.35Z" transform="translate(-268.98 -290.58)" fill="#adadad"/><path d="M294.89,580.59h33.2a66.15,66.15,0,1,1,0,16.25h-33.2A8.13,8.13,0,1,1,294.89,580.59Z" transform="translate(-268.98 -290.58)" fill="#fff"/><path d="M354.9,549.29l78.21,78.21A55.31,55.31,0,1,1,354.9,549.29Z" transform="translate(-268.98 -290.58)" fill="#ad5d28"/><path d="M393.68,533.38a55.31,55.31,0,0,1,39.43,94.12L354.9,549.29A55.11,55.11,0,0,1,393.68,533.38Z" transform="translate(-268.98 -290.58)" fill="#6b3010"/><path d="M469.69,596.09c4.44-2.15,9.47-1.05,11.6,2.41a0.34,0.34,0,0,0,0,.06c0.1,0.17.2,0.34,0.29,0.53,1.91,3.92-.34,9-5,11.22-4.43,2.15-9.44,1.06-11.58-2.39l-0.07-.12c-0.09-.16-0.18-0.33-0.27-0.5C462.76,603.38,465,598.36,469.69,596.09Z" transform="translate(-268.98 -290.58)" fill="#6b3010"/><path d="M480.18,589.55c4.44-2.16,9.47-1.05,11.61,2.41l0,0.06c0.1,0.17.2,0.34,0.29,0.53,1.9,3.93-.34,9-5,11.22-4.43,2.15-9.44,1.06-11.58-2.39l-0.08-.12c-0.09-.16-0.19-0.32-0.27-0.5C473.26,596.84,475.51,591.82,480.18,589.55Z" transform="translate(-268.98 -290.58)" fill="#ad5d28"/><path d="M435.72,671.14c4.44-2.15,9.47-1.05,11.61,2.41a0.22,0.22,0,0,0,0,.06c0.1,0.17.2,0.34,0.29,0.53,1.91,3.93-.35,9-5,11.22-4.43,2.15-9.44,1.06-11.58-2.38l-0.07-.12c-0.09-.16-0.19-0.33-0.27-0.5C428.8,678.43,431,673.41,435.72,671.14Z" transform="translate(-268.98 -290.58)" fill="#c48851"/><path d="M458.51,626.07c0-4.94,3.17-9,7.22-9.4h0.06a5.65,5.65,0,0,1,.6,0c4.36,0,7.92,4.2,7.93,9.4,0,4.92-3.15,9-7.19,9.4H467a5.62,5.62,0,0,1-.56,0C462.08,635.48,458.53,631.27,458.51,626.07Z" transform="translate(-268.98 -290.58)" fill="#3b3129"/><path d="M445.88,644.6c3.06-3.87,8.08-5.06,11.5-2.86l0.05,0c0.17,0.11.33,0.22,0.49,0.35,3.42,2.71,3.58,8.22.35,12.29-3.05,3.86-8,5.06-11.47,2.88l-0.12-.08c-0.15-.11-0.31-0.21-0.46-0.33C442.82,654.18,442.66,648.68,445.88,644.6Z" transform="translate(-268.98 -290.58)" fill="#6b3010"/><path d="M476.55,640.65c4.94,0,9,3.2,9.37,7.26,0,0,0,0,0,.07a5.69,5.69,0,0,1,0,.6c0,4.37-4.24,7.9-9.44,7.88-4.91,0-8.94-3.19-9.36-7.23l0-.14c0-.19,0-0.37,0-0.56C467.12,644.16,471.35,640.63,476.55,640.65Z" transform="translate(-268.98 -290.58)" fill="#c48851"/><path d="M428,668.24c-1.57-4.69.18-9.53,3.89-11.2l0.06,0c0.18-.08.37-0.16,0.56-0.22,4.14-1.38,8.83,1.5,10.48,6.43,1.56,4.67-.17,9.5-3.86,11.18l-0.13.06-0.53.21C434.33,676.05,429.64,673.18,428,668.24Z" transform="translate(-268.98 -290.58)" fill="#ad5d28"/><path d="M456.49,670.16c-1.57-4.68.18-9.53,3.9-11.2l0.06,0a5.79,5.79,0,0,1,.56-0.22c4.14-1.38,8.83,1.5,10.48,6.43,1.56,4.67-.17,9.5-3.86,11.18l-0.13.06-0.53.2C462.82,678,458.13,675.09,456.49,670.16Z" transform="translate(-268.98 -290.58)" fill="#3b3129"/><path d="M477.3,619.28c1.81-4.59,6.26-7.18,10.18-6.07l0.06,0a5.64,5.64,0,0,1,.57.19c4.06,1.6,5.81,6.83,3.9,11.66-1.8,4.58-6.23,7.17-10.15,6.08l-0.14,0a5.06,5.06,0,0,1-.53-0.18C477.14,629.34,475.4,624.12,477.3,619.28Z" transform="translate(-268.98 -290.58)" fill="#6b3010"/><path d="M465.27,580.14c-2.53-4.23-1.87-9.34,1.4-11.77l0.05,0a5.89,5.89,0,0,1,.5-0.33c3.75-2.24,9-.44,11.62,4,2.53,4.22,1.88,9.31-1.37,11.75l-0.11.09a5.36,5.36,0,0,1-.47.31C473.14,586.4,467.94,584.6,465.27,580.14Z" transform="translate(-268.98 -290.58)" fill="#6b3010"/><g id="_Groep_" data-name="&lt;Groep&gt;"><path id="_Samengesteld_pad_" data-name="&lt;Samengesteld pad&gt;" d="M727.17,396.72c-0.09-.46-0.18-0.93-0.27-1.39-0.67.17-1.34,0.3-2,.41a23.22,23.22,0,0,1-11.13-.94c-12.29-4.17-24.14-17.59-19.94-30,0.59-1.75-1.27-3.38-.34-4.89a23.38,23.38,0,0,1-24.13-16.28,23.68,23.68,0,0,1-1-9.79c-4.34,4.54-4.71,7.47-10.71,8.27a25,25,0,0,1-11.41-1.1c-13.8-4.68-21-20.33-16-35a29.72,29.72,0,0,1,1.26-3.12l0.06-.14c-57.63-11.7-113.69,21-133.05,78.16A118.53,118.53,0,1,0,727.17,396.72Zm-79,35a39.51,39.51,0,1,1-24.74-50.1l0.09,0A39.51,39.51,0,0,1,648.16,431.7Z" transform="translate(-268.98 -290.58)" fill="#f2b984"/></g><path d="M728.33,404c-33.59,50.81-88.42,107.11-170.94,120.88A118.49,118.49,0,0,0,723,457.06,118,118,0,0,0,728.33,404Z" transform="translate(-268.98 -290.58)" fill="#eba667"/><g id="_Groep_2" data-name="&lt;Groep&gt;"><path id="_Pad_" data-name="&lt;Pad&gt;" d="M728.08,383.33c-0.67.17-1.34,0.3-2,.41a23.49,23.49,0,0,0,2.3,1C728.26,384.26,728.17,383.79,728.08,383.33Z" transform="translate(-268.98 -290.58)" fill="#f07d9e"/><g id="_Groep_3" data-name="&lt;Groep&gt;"><path id="_Samengesteld_pad_2" data-name="&lt;Samengesteld pad&gt;" d="M728.35,384.72a23.49,23.49,0,0,1-2.3-1,23.22,23.22,0,0,1-11.13-.94,23.59,23.59,0,0,1-14.66-30,23.92,23.92,0,0,1,2.3-4.89,23.38,23.38,0,0,1-24.13-16.28,23.68,23.68,0,0,1-1-9.79,27.3,27.3,0,0,1-16,8.27A25,25,0,0,1,650,329c-13.8-4.68-21-20.33-16-35A29.73,29.73,0,0,1,635.3,291,118.54,118.54,0,0,0,587.84,521.4c4.47,1.52,105.72,24.05,136.35-76.33C730.4,424.72,732.1,404.22,728.35,384.72Zm-79,35a39.51,39.51,0,1,1-24.74-50.1l0.09,0A39.51,39.51,0,0,1,649.35,419.7Z" transform="translate(-268.98 -290.58)" fill="#f05"/></g></g><path id="_Pad_2" data-name="&lt;Pad&gt;" d="M728.08,383.33c-0.67.17-1.34,0.3-2,.41a23.49,23.49,0,0,0,2.3,1C728.26,384.26,728.17,383.79,728.08,383.33Z" transform="translate(-268.98 -290.58)" fill="#f07d9e"/><path d="M730.22,401.1c-30,46.32-77.74,98-148.13,118.18q2.83,1.12,5.75,2.11c4.47,1.52,105.72,24.05,136.35-76.33A132.41,132.41,0,0,0,730.22,401.1Z" transform="translate(-268.98 -290.58)" fill="#c31b4b"/><path d="M624.58,314.16V302.54c-0.85,0-1.69,0-2.54,0a103.64,103.64,0,0,0-82.16,166.83A103.67,103.67,0,0,1,624.58,314.16Z" transform="translate(-268.98 -290.58)" fill="#f7619b"/><rect x="551" y="435.19" width="6.39" height="19.73" transform="translate(-397.22 -44.26) rotate(-22.53)" fill="#ffd474"/><rect x="658.42" y="336.45" width="6.39" height="19.73" transform="translate(-9.93 684.71) rotate(-85.01)" fill="#ffd474"/><rect x="534.28" y="383.14" width="19.73" height="6.39" transform="translate(-391.15 58.64) rotate(-32.19)" fill="#cff900"/><rect x="691.87" y="435.19" width="6.39" height="19.73" transform="translate(-254.51 621.35) rotate(-67.08)" fill="#ffd474"/><rect x="592.18" y="324.83" width="6.39" height="19.73" transform="translate(-254.69 403.06) rotate(-61.05)" fill="#36c16c"/><rect x="656.02" y="471.67" width="6.39" height="19.73" transform="translate(-419.13 297.57) rotate(-43.65)" fill="#cff900"/><rect x="585.51" y="479.73" width="19.73" height="6.39" transform="translate(-434.72 100.77) rotate(-32.19)" fill="#36c16c"/><rect x="679.84" y="396.43" width="19.73" height="6.39" transform="translate(-375.86 138.22) rotate(-32.19)" fill="#cff900"/></svg>